<?xml version="1.0" encoding="UTF-8" standalone="no" ?>
<!DOCTYPE svg PUBLIC "-//W3C//DTD SVG 1.1//EN" "http://www.w3.org/Graphics/SVG/1.1/DTD/svg11.dtd">
<svg xmlns="http://www.w3.org/2000/svg" xmlns:xlink="http://www.w3.org/1999/xlink" version="1.1" width="1280" height="1024" viewBox="0 0 1280 1024" xml:space="preserve">
<desc>Created with Fabric.js 5.3.0</desc>
<defs>
</defs>
<g transform="matrix(1 0 0 1 640 512)" id="background-logo"  >
<rect style="stroke: none; stroke-width: 0; stroke-dasharray: none; stroke-linecap: butt; stroke-dashoffset: 0; stroke-linejoin: miter; stroke-miterlimit: 4; fill: rgb(255,255,255); fill-rule: nonzero; opacity: 1;"  paint-order="stroke"  x="-640" y="-512" rx="0" ry="0" width="1280" height="1024" />
</g>
<g transform="matrix(2.3337657442370188 0 0 2.3337657442370188 316.8480239330637 440.58089229343557)" id="logo-logo"  >
<g style=""  paint-order="stroke"   >
		<g transform="matrix(1.2927726666085524 0 0 0.5785143570122213 0 5.677696455781842)"  >
<g style=""  paint-order="stroke"   >
		<g transform="matrix(1 0 0 1 -21.914999999999992 46.10499999999999)"  >
<polygon style="stroke: none; stroke-width: 1; stroke-dasharray: none; stroke-linecap: butt; stroke-dashoffset: 0; stroke-linejoin: miter; stroke-miterlimit: 4; fill: rgb(170,187,207); fill-rule: nonzero; opacity: 1;"  paint-order="stroke"  points="22.189999999999998,47.80500000000001 21.189999999999998,47.80500000000001 21.189999999999998,-43.454999999999984 -21.29,44.07500000000002 -22.189999999999998,43.64500000000001 22.189999999999998,-47.80499999999999 " />
</g>
		<g transform="matrix(1 0 0 1 -5.079999999999984 22.888769240376348)"  >
<path style="stroke: none; stroke-width: 1; stroke-dasharray: none; stroke-linecap: butt; stroke-dashoffset: 0; stroke-linejoin: miter; stroke-miterlimit: 4; fill: rgb(170,187,207); fill-rule: nonzero; opacity: 1;"  paint-order="stroke"  transform=" translate(-92.58500000000001, -122.88876924037635)" d="M 97.27 125.48 C 96.5 123.81 94.97 122.45 93.06 121.77000000000001 C 91.15 121.08000000000001 89.10000000000001 121.15 87.44 121.95000000000002 L 87 121.05000000000001 C 88.9 120.13000000000001 91.23 120.05000000000001 93.39 120.83000000000001 C 95.55 121.61000000000001 97.3 123.15 98.17 125.07000000000001 L 97.27 125.48 z" stroke-linecap="round" />
</g>
		<g transform="matrix(1 0 0 1 -10.889999999999986 45.24096483750225)"  >
<path style="stroke: none; stroke-width: 1; stroke-dasharray: none; stroke-linecap: butt; stroke-dashoffset: 0; stroke-linejoin: miter; stroke-miterlimit: 4; fill: rgb(170,187,207); fill-rule: nonzero; opacity: 1;"  paint-order="stroke"  transform=" translate(-86.775, -145.24096483750225)" d="M 97.01 150.49 C 95.68 146.48000000000002 92.34 143.23000000000002 88.31 142 C 84.12 140.72 78.99000000000001 139.85 76.48 144.42 L 75.60000000000001 143.94 C 78.49000000000001 138.68 84.4 139.77 88.59 141.04 C 92.93 142.35999999999999 96.52000000000001 145.85999999999999 97.95 150.17 L 97.01 150.49 z" stroke-linecap="round" />
</g>
		<g transform="matrix(1 0 0 1 -17.485 70.90429458290228)"  >
<path style="stroke: none; stroke-width: 1; stroke-dasharray: none; stroke-linecap: butt; stroke-dashoffset: 0; stroke-linejoin: miter; stroke-miterlimit: 4; fill: rgb(170,187,207); fill-rule: nonzero; opacity: 1;"  paint-order="stroke"  transform=" translate(-80.17999999999999, -170.90429458290228)" d="M 97.07 180.16 C 96.82 175.25 94.32 171.01999999999998 89.21 166.85 C 84.91999999999999 163.35999999999999 79.16 161.9 74.16 163.04 C 68.64 164.29999999999998 65.25999999999999 167.07999999999998 63.199999999999996 172.07 L 62.279999999999994 171.69 C 64.47999999999999 166.37 68.08 163.4 73.94 162.07 C 79.31 160.84 85.25999999999999 162.34 89.85 166.07999999999998 C 93.22 168.82 97.72999999999999 173.26 98.08 180.10999999999999 L 97.07 180.16 z" stroke-linecap="round" />
</g>
		<g transform="matrix(1 0 0 1 -38.844999999999985 41.66)"  >
<polygon style="stroke: none; stroke-width: 1; stroke-dasharray: none; stroke-linecap: butt; stroke-dashoffset: 0; stroke-linejoin: miter; stroke-miterlimit: 4; fill: rgb(170,187,207); fill-rule: nonzero; opacity: 1;"  paint-order="stroke"  points="-1.6600000000000108,43.06999999999999 -2.5600000000000094,42.640000000000015 37.03999999999999,-39.59 -39.21000000000001,20.849999999999994 -39.83000000000001,20.060000000000002 39.83,-43.06999999999999 " />
</g>
		<g transform="matrix(1 0 0 1 -14.564360590125801 18.560000000000002)"  >
<path style="stroke: none; stroke-width: 1; stroke-dasharray: none; stroke-linecap: butt; stroke-dashoffset: 0; stroke-linejoin: miter; stroke-miterlimit: 4; fill: rgb(170,187,207); fill-rule: nonzero; opacity: 1;"  paint-order="stroke"  transform=" translate(-83.10063940987419, -118.56)" d="M 87.26 122.8 L 86.26 122.78 C 86.30000000000001 120.94 85.5 119.05 84.08 117.6 C 82.66 116.14999999999999 80.78999999999999 115.32 78.95 115.32 C 78.95 115.32 78.95 115.32 78.94 115.32 L 78.94 114.32 C 78.94 114.32 78.95 114.32 78.95 114.32 C 81.06 114.32 83.19 115.25999999999999 84.79 116.89999999999999 C 86.4 118.55 87.3 120.69 87.26 122.8 z" stroke-linecap="round" />
</g>
		<g transform="matrix(1 0 0 1 -30.164440218573418 36.95184723400098)"  >
<path style="stroke: none; stroke-width: 1; stroke-dasharray: none; stroke-linecap: butt; stroke-dashoffset: 0; stroke-linejoin: miter; stroke-miterlimit: 4; fill: rgb(170,187,207); fill-rule: nonzero; opacity: 1;"  paint-order="stroke"  transform=" translate(-67.50055978142657, -136.95184723400098)" d="M 76.16 145.33 L 75.17 145.20000000000002 C 75.71000000000001 141.01000000000002 74.11 136.64000000000001 71.01 133.78000000000003 C 67.79 130.81000000000003 63.550000000000004 127.80000000000003 59.31 130.83000000000004 L 58.730000000000004 130.02000000000004 C 63.620000000000005 126.53000000000004 68.47 130.08000000000004 71.69 133.05000000000004 C 75.02 136.12 76.74 140.83 76.16 145.33 z" stroke-linecap="round" />
</g>
		<g transform="matrix(1 0 0 1 -48.07566164465154 58.71296139139571)"  >
<path style="stroke: none; stroke-width: 1; stroke-dasharray: none; stroke-linecap: butt; stroke-dashoffset: 0; stroke-linejoin: miter; stroke-miterlimit: 4; fill: rgb(170,187,207); fill-rule: nonzero; opacity: 1;"  paint-order="stroke"  transform=" translate(-49.58933835534845, -158.7129613913957)" d="M 63.27 172.35 L 62.35 171.96 C 64.26 167.42000000000002 63.84 162.53 61.04 156.56 C 58.69 151.56 54.129999999999995 147.74 49.129999999999995 146.6 C 43.61 145.34 39.36 146.38 35.33 149.98 L 34.66 149.23 C 38.949999999999996 145.39 43.48 144.28 49.349999999999994 145.61999999999998 C 54.71999999999999 146.84999999999997 59.42999999999999 150.77999999999997 61.94 156.12999999999997 C 63.79 160.06 65.93 166.02 63.27 172.35 z" stroke-linecap="round" />
</g>
		<g transform="matrix(1 0 0 1 -48.084999999999994 28.960000000000008)"  >
<polygon style="stroke: none; stroke-width: 1; stroke-dasharray: none; stroke-linecap: butt; stroke-dashoffset: 0; stroke-linejoin: miter; stroke-miterlimit: 4; fill: rgb(170,187,207); fill-rule: nonzero; opacity: 1;"  paint-order="stroke"  points="-25.169999999999998,29.810000000000002 -25.79,29.03 45.56,-27.88000000000001 -49.36,-6.510000000000005 -49.58,-7.490000000000009 49.58,-29.810000000000002 " />
</g>
		<g transform="matrix(1 0 0 1 -20.984099185721192 10.409999999999997)"  >
<path style="stroke: none; stroke-width: 1; stroke-dasharray: none; stroke-linecap: butt; stroke-dashoffset: 0; stroke-linejoin: miter; stroke-miterlimit: 4; fill: rgb(170,187,207); fill-rule: nonzero; opacity: 1;"  paint-order="stroke"  transform=" translate(-76.6809008142788, -110.41)" d="M 78.4 116.03 L 77.51 115.58 C 78.34 113.94 78.44000000000001 111.89 77.79 109.97 C 77.14 108.05 75.81 106.49 74.15 105.69 L 74.58000000000001 104.78999999999999 C 76.48000000000002 105.69999999999999 78.00000000000001 107.47999999999999 78.74000000000001 109.64999999999999 C 79.47 111.82 79.35 114.15 78.4 116.03 z" stroke-linecap="round" />
</g>
		<g transform="matrix(1 0 0 1 -42.43578998609116 20.76112467666374)"  >
<path style="stroke: none; stroke-width: 1; stroke-dasharray: none; stroke-linecap: butt; stroke-dashoffset: 0; stroke-linejoin: miter; stroke-miterlimit: 4; fill: rgb(170,187,207); fill-rule: nonzero; opacity: 1;"  paint-order="stroke"  transform=" translate(-55.22921001390883, -120.76112467666374)" d="M 58.62 131.51 L 57.779999999999994 130.97 C 60.07999999999999 127.42999999999999 60.53999999999999 122.8 58.989999999999995 118.87 C 57.379999999999995 114.80000000000001 54.87 110.23 49.73 111.13000000000001 L 49.559999999999995 110.14000000000001 C 55.48 109.12000000000002 58.309999999999995 114.42000000000002 59.919999999999995 118.49000000000001 C 61.59 122.72 61.1 127.7 58.62 131.51 z" stroke-linecap="round" />
</g>
		<g transform="matrix(1 0 0 1 -67.32948012994599 33.276779154645794)"  >
<path style="stroke: none; stroke-width: 1; stroke-dasharray: none; stroke-linecap: butt; stroke-dashoffset: 0; stroke-linejoin: miter; stroke-miterlimit: 4; fill: rgb(170,187,207); fill-rule: nonzero; opacity: 1;"  paint-order="stroke"  transform=" translate(-30.335519870054004, -133.2767791546458)" d="M 35.29 150.26 L 34.63 149.51 C 38.31 146.25 40.06 141.66 40.13 135.07 C 40.190000000000005 129.54 37.730000000000004 124.13 33.72 120.92999999999999 C 29.29 117.39999999999999 25.009999999999998 116.49 19.82 117.99 L 19.54 117.03 C 25.07 115.44 29.63 116.4 34.34 120.15 C 38.650000000000006 123.59 41.190000000000005 129.17000000000002 41.13 135.08 C 41.08 139.41 40.43 145.71 35.29 150.26 z" stroke-linecap="round" />
</g>
		<g transform="matrix(1 0 0 1 -47.90999999999999 -0.9350000000000023)"  >
<polygon style="stroke: none; stroke-width: 1; stroke-dasharray: none; stroke-linecap: butt; stroke-dashoffset: 0; stroke-linejoin: miter; stroke-miterlimit: 4; fill: rgb(170,187,207); fill-rule: nonzero; opacity: 1;"  paint-order="stroke"  points="-43.585,22.095 -43.805,21.125 45.165,0.8149999999999977 -49.625,-21.125 -49.405,-22.095 49.62499999999999,0.8250000000000028 " />
</g>
		<g transform="matrix(1 0 0 1 -23.047956194141648 0.18500000000000227)"  >
<path style="stroke: none; stroke-width: 1; stroke-dasharray: none; stroke-linecap: butt; stroke-dashoffset: 0; stroke-linejoin: miter; stroke-miterlimit: 4; fill: rgb(170,187,207); fill-rule: nonzero; opacity: 1;"  paint-order="stroke"  transform=" translate(-74.61704380585834, -100.185)" d="M 73.35 106.08 L 72.74 105.28999999999999 C 74.19999999999999 104.16999999999999 75.17999999999999 102.36999999999999 75.42999999999999 100.35 C 75.67999999999999 98.33 75.16 96.35 74.00999999999999 94.91 L 74.78999999999999 94.28999999999999 C 76.10999999999999 95.94 76.69999999999999 98.19 76.42999999999999 100.47 C 76.14 102.75 75.02 104.8 73.35 106.08 z" stroke-linecap="round" />
</g>
		<g transform="matrix(1 0 0 1 -45.65521518516793 -0.13999999999998636)"  >
<path style="stroke: none; stroke-width: 1; stroke-dasharray: none; stroke-linecap: butt; stroke-dashoffset: 0; stroke-linejoin: miter; stroke-miterlimit: 4; fill: rgb(170,187,207); fill-rule: nonzero; opacity: 1;"  paint-order="stroke"  transform=" translate(-52.00978481483206, -99.86000000000001)" d="M 48.82 111.45 L 48.3 110.59 C 51.91 108.4 54.339999999999996 104.43 54.64 100.22 C 54.95 95.85 54.67 90.66 49.65 89.23 L 49.92 88.27000000000001 C 55.7 89.91000000000001 55.95 95.92000000000002 55.63 100.29 C 55.31 104.82 52.7 109.09 48.82 111.45 z" stroke-linecap="round" />
</g>
		<g transform="matrix(1 0 0 1 -71.18569184154089 -0.1799999999999926)"  >
<path style="stroke: none; stroke-width: 1; stroke-dasharray: none; stroke-linecap: butt; stroke-dashoffset: 0; stroke-linejoin: miter; stroke-miterlimit: 4; fill: rgb(170,187,207); fill-rule: nonzero; opacity: 1;"  paint-order="stroke"  transform=" translate(-26.479308158459105, -99.82000000000001)" d="M 19.66 118.21 L 19.39 117.25 C 24.12 115.91 27.69 112.53 30.61 106.62 C 33.06 101.67 33.2 95.72 30.97 91.10000000000001 C 28.509999999999998 86.00000000000001 25.04 83.32000000000001 19.72 82.42000000000002 L 19.89 81.43000000000002 C 25.560000000000002 82.39000000000001 29.259999999999998 85.24000000000002 31.87 90.66000000000003 C 34.26 95.63000000000002 34.120000000000005 101.76000000000002 31.5 107.06000000000003 C 29.58 110.96 26.26 116.35 19.66 118.21 z" stroke-linecap="round" />
</g>
		<g transform="matrix(1 0 0 1 -45.00999999999999 -31.164999999999992)"  >
<polygon style="stroke: none; stroke-width: 1; stroke-dasharray: none; stroke-linecap: butt; stroke-dashoffset: 0; stroke-linejoin: miter; stroke-miterlimit: 4; fill: rgb(170,187,207); fill-rule: nonzero; opacity: 1;"  paint-order="stroke"  points="46.605000000000004,31.804999999999993 -46.605000000000004,10.534999999999997 -46.385000000000005,9.554999999999993 42.584999999999994,29.864999999999995 -33.295,-31.025000000000006 -32.675,-31.805000000000007 " />
</g>
		<g transform="matrix(1 0 0 1 -21.362999684920794 -10.064999999999998)"  >
<path style="stroke: none; stroke-width: 1; stroke-dasharray: none; stroke-linecap: butt; stroke-dashoffset: 0; stroke-linejoin: miter; stroke-miterlimit: 4; fill: rgb(170,187,207); fill-rule: nonzero; opacity: 1;"  paint-order="stroke"  transform=" translate(-76.3020003150792, -89.935)" d="M 73.12 94.93 L 72.91000000000001 93.95 C 74.71000000000001 93.57000000000001 76.38000000000001 92.38000000000001 77.47000000000001 90.67 C 78.56000000000002 88.96000000000001 78.96000000000001 86.95 78.54 85.16 L 79.51 84.94 C 79.98 87 79.54 89.28 78.30000000000001 91.22 C 77.06000000000002 93.16 75.19 94.5 73.12 94.93 z" stroke-linecap="round" />
</g>
		<g transform="matrix(1 0 0 1 -42.232092328743825 -21.08999999999999)"  >
<path style="stroke: none; stroke-width: 1; stroke-dasharray: none; stroke-linecap: butt; stroke-dashoffset: 0; stroke-linejoin: miter; stroke-miterlimit: 4; fill: rgb(170,187,207); fill-rule: nonzero; opacity: 1;"  paint-order="stroke"  transform=" translate(-55.43290767125617, -78.91000000000001)" d="M 48.69 89.12 L 48.589999999999996 88.12 C 52.79 87.71000000000001 56.699999999999996 85.19 58.8 81.52000000000001 C 60.98 77.72000000000001 62.97 72.92000000000002 59.07 69.45000000000002 L 59.73 68.70000000000002 C 64.22 72.69000000000001 61.839999999999996 78.21000000000002 59.66 82.01000000000002 C 57.42 85.96 53.21 88.68 48.69 89.12 z" stroke-linecap="round" />
</g>
		<g transform="matrix(1 0 0 1 -66.71 -33.83)"  >
<path style="stroke: none; stroke-width: 1; stroke-dasharray: none; stroke-linecap: butt; stroke-dashoffset: 0; stroke-linejoin: miter; stroke-miterlimit: 4; fill: rgb(170,187,207); fill-rule: nonzero; opacity: 1;"  paint-order="stroke"  transform=" translate(-30.955, -66.17)" d="M 22.24 82.81 C 21.349999999999998 82.81 20.43 82.73 19.479999999999997 82.57000000000001 L 19.65 81.59 C 24.5 82.44 29.169999999999998 80.94 34.37 76.88000000000001 C 38.73 73.48 41.43 68.18 41.43 63.05000000000001 C 41.43 57.390000000000015 39.47 53.47000000000001 35.06 50.35000000000001 L 35.64 49.53000000000001 C 40.34 52.86000000000001 42.43 57.03000000000001 42.43 63.040000000000006 C 42.43 68.55000000000001 39.65 74.02000000000001 34.98 77.66000000000001 C 32.05 79.96 27.7 82.81 22.24 82.81 z" stroke-linecap="round" />
</g>
		<g transform="matrix(1 0 0 1 -36.214999999999996 -44.585)"  >
<polygon style="stroke: none; stroke-width: 1; stroke-dasharray: none; stroke-linecap: butt; stroke-dashoffset: 0; stroke-linejoin: miter; stroke-miterlimit: 4; fill: rgb(170,187,207); fill-rule: nonzero; opacity: 1;"  paint-order="stroke"  points="37.38,45.855 -37.379999999999995,-13.755000000000003 -36.75,-14.534999999999997 34.6,42.365 -7.349999999999994,-45.425 -6.449999999999996,-45.855 " />
</g>
		<g transform="matrix(1 0 0 1 -14.864999999999995 -18.340000000000003)"  >
<path style="stroke: none; stroke-width: 1; stroke-dasharray: none; stroke-linecap: butt; stroke-dashoffset: 0; stroke-linejoin: miter; stroke-miterlimit: 4; fill: rgb(170,187,207); fill-rule: nonzero; opacity: 1;"  paint-order="stroke"  transform=" translate(-82.8, -81.66)" d="M 79.54 84.99 C 78.93 84.99 78.33000000000001 84.92 77.75 84.78 L 77.99 83.81 C 79.78 84.26 81.8 83.9 83.52 82.83 C 85.25 81.76 86.47 80.12 86.88 78.33 L 87.85 78.55 C 87.38 80.61 85.99 82.48 84.03999999999999 83.67999999999999 C 82.65 84.54 81.08 84.99 79.54 84.99 z" stroke-linecap="round" />
</g>
		<g transform="matrix(1 0 0 1 -29.683585030462012 -37.415000000000006)"  >
<path style="stroke: none; stroke-width: 1; stroke-dasharray: none; stroke-linecap: butt; stroke-dashoffset: 0; stroke-linejoin: miter; stroke-miterlimit: 4; fill: rgb(170,187,207); fill-rule: nonzero; opacity: 1;"  paint-order="stroke"  transform=" translate(-67.98141496953798, -62.584999999999994)" d="M 63.12 69.8 C 61.47 69.8 59.82 69.52 58.26 68.95 L 58.61 68.01 C 62.57 69.47 67.19 68.89 70.67 66.5 C 74.28 64.02 78.16 60.56 76.15 55.75 L 77.07000000000001 55.37 C 79.39 60.91 74.85000000000001 64.85 71.23 67.33 C 68.86 68.95 65.99 69.8 63.12 69.8 z" stroke-linecap="round" />
</g>
		<g transform="matrix(1 0 0 1 -47.34911104606965 -59.474999999999994)"  >
<path style="stroke: none; stroke-width: 1; stroke-dasharray: none; stroke-linecap: butt; stroke-dashoffset: 0; stroke-linejoin: miter; stroke-miterlimit: 4; fill: rgb(170,187,207); fill-rule: nonzero; opacity: 1;"  paint-order="stroke"  transform=" translate(-50.31588895393034, -40.525000000000006)" d="M 44.76 53.42 C 41.559999999999995 53.42 38.05 52.71 34.79 50.370000000000005 L 35.37 49.56 C 39.37 52.43 44.23 53.11 50.68 51.71 C 56.08 50.54 60.82 46.94 63.04 42.31 C 65.5 37.21 65.42999999999999 32.83 62.81 28.110000000000003 L 63.690000000000005 27.630000000000003 C 66.48 32.67 66.55000000000001 37.33 63.940000000000005 42.75 C 61.550000000000004 47.72 56.67 51.43 50.89 52.69 C 49.13 53.06 47.02 53.42 44.76 53.42 z" stroke-linecap="round" />
</g>
		<g transform="matrix(1 0 0 1 -20.099999999999994 -49.175)"  >
<polygon style="stroke: none; stroke-width: 1; stroke-dasharray: none; stroke-linecap: butt; stroke-dashoffset: 0; stroke-linejoin: miter; stroke-miterlimit: 4; fill: rgb(170,187,207); fill-rule: nonzero; opacity: 1;"  paint-order="stroke"  points="20.595,50.825 -20.894999999999996,-35.325 -19.994999999999997,-35.755 19.605000000000004,46.465 19.894999999999996,-50.825 20.894999999999996,-50.825 " />
</g>
		<g transform="matrix(1 0 0 1 -5.429999999999978 -22.379999999999995)"  >
<path style="stroke: none; stroke-width: 1; stroke-dasharray: none; stroke-linecap: butt; stroke-dashoffset: 0; stroke-linejoin: miter; stroke-miterlimit: 4; fill: rgb(170,187,207); fill-rule: nonzero; opacity: 1;"  paint-order="stroke"  transform=" translate(-92.23500000000001, -77.62)" d="M 91.54 79.44 C 89.59 79.44 87.73 78.81 86.33000000000001 77.64999999999999 L 86.97000000000001 76.88 C 88.39000000000001 78.05 90.36000000000001 78.61 92.38000000000001 78.39999999999999 C 94.4 78.19 96.22000000000001 77.24 97.36000000000001 75.8 L 98.14000000000001 76.42 C 96.83000000000001 78.07000000000001 94.76000000000002 79.15 92.48000000000002 79.39 C 92.16 79.42 91.85 79.44 91.54 79.44 z" stroke-linecap="round" />
</g>
		<g transform="matrix(1 0 0 1 -10.599999999999994 -44.980000000000004)"  >
<path style="stroke: none; stroke-width: 1; stroke-dasharray: none; stroke-linecap: butt; stroke-dashoffset: 0; stroke-linejoin: miter; stroke-miterlimit: 4; fill: rgb(170,187,207); fill-rule: nonzero; opacity: 1;"  paint-order="stroke"  transform=" translate(-87.065, -55.019999999999996)" d="M 85.94 59.25 C 82.12 59.25 78.31 57.68 75.64 54.93 L 76.36 54.23 C 79.3 57.26 83.71 58.739999999999995 87.88 58.099999999999994 C 92.21 57.42999999999999 97.21 55.99999999999999 97.49 50.78999999999999 L 98.49 50.83999999999999 C 98.17 56.83999999999999 92.36999999999999 58.41999999999999 88.03999999999999 59.08999999999999 C 87.34 59.19 86.64 59.25 85.94 59.25 z" stroke-linecap="round" />
</g>
		<g transform="matrix(1 0 0 1 -17.14225031356729 -71.17)"  >
<path style="stroke: none; stroke-width: 1; stroke-dasharray: none; stroke-linecap: butt; stroke-dashoffset: 0; stroke-linejoin: miter; stroke-miterlimit: 4; fill: rgb(170,187,207); fill-rule: nonzero; opacity: 1;"  paint-order="stroke"  transform=" translate(-80.5227496864327, -28.83)" d="M 80.72 37.62 C 79.17 37.62 77.6 37.44 76.05 37.07 C 71.83 36.06 65.84 34.02 62.55 28 L 63.43 27.52 C 65.79 31.84 69.87 34.56 76.28999999999999 36.1 C 81.66999999999999 37.38 87.49 36.2 91.5 33 C 95.93 29.47 97.76 25.490000000000002 97.46 20.1 L 98.46 20.040000000000003 C 98.78999999999999 25.790000000000003 96.83 30.020000000000003 92.13 33.77 C 88.97 36.29 84.92 37.62 80.72 37.62 z" stroke-linecap="round" />
</g>
		<g transform="matrix(1 0 0 1 21.91500000000002 -46.105000000000004)"  >
<polygon style="stroke: none; stroke-width: 1; stroke-dasharray: none; stroke-linecap: butt; stroke-dashoffset: 0; stroke-linejoin: miter; stroke-miterlimit: 4; fill: rgb(170,187,207); fill-rule: nonzero; opacity: 1;"  paint-order="stroke"  points="-22.190000000000012,47.80500000000001 -22.190000000000012,-47.80499999999999 -21.190000000000012,-47.80499999999999 -21.190000000000012,43.455 21.289999999999992,-44.074999999999996 22.189999999999998,-43.644999999999996 " />
</g>
		<g transform="matrix(1 0 0 1 5.085000000000008 -22.885000000000005)"  >
<path style="stroke: none; stroke-width: 1; stroke-dasharray: none; stroke-linecap: butt; stroke-dashoffset: 0; stroke-linejoin: miter; stroke-miterlimit: 4; fill: rgb(170,187,207); fill-rule: nonzero; opacity: 1;"  paint-order="stroke"  transform=" translate(-102.75, -77.115)" d="M 104.94 79.71 C 103.94 79.71 102.92 79.52999999999999 101.94 79.17999999999999 C 99.78 78.39999999999999 98.03 76.86 97.16 74.94 L 98.07 74.52 C 98.83999999999999 76.19 100.36999999999999 77.55 102.27999999999999 78.22999999999999 C 104.18999999999998 78.91999999999999 106.23999999999998 78.85 107.89999999999999 78.04999999999998 L 108.33999999999999 78.94999999999999 C 107.29 79.46 106.13 79.71 104.94 79.71 z" stroke-linecap="round" />
</g>
		<g transform="matrix(1 0 0 1 10.884999999999991 -45.24)"  >
<path style="stroke: none; stroke-width: 1; stroke-dasharray: none; stroke-linecap: butt; stroke-dashoffset: 0; stroke-linejoin: miter; stroke-miterlimit: 4; fill: rgb(170,187,207); fill-rule: nonzero; opacity: 1;"  paint-order="stroke"  transform=" translate(-108.54999999999998, -54.76)" d="M 112.66 60.01 C 110.61999999999999 60.01 108.52 59.5 106.72999999999999 58.96 C 102.38999999999999 57.64 98.79999999999998 54.14 97.36999999999999 49.83 L 98.32 49.51 C 99.64999999999999 53.519999999999996 102.99 56.769999999999996 107.02 58 C 111.21 59.28 116.34 60.15 118.85 55.58 L 119.72999999999999 56.059999999999995 C 118.07 59.08 115.42 60.01 112.66 60.01 z" stroke-linecap="round" />
</g>
		<g transform="matrix(1 0 0 1 17.5 -70.905)"  >
<path style="stroke: none; stroke-width: 1; stroke-dasharray: none; stroke-linecap: butt; stroke-dashoffset: 0; stroke-linejoin: miter; stroke-miterlimit: 4; fill: rgb(170,187,207); fill-rule: nonzero; opacity: 1;"  paint-order="stroke"  transform=" translate(-115.16499999999999, -29.095)" d="M 117.63 38.35 C 113.36999999999999 38.35 109.03 36.800000000000004 105.5 33.92 C 102.13 31.18 97.62 26.740000000000002 97.27 19.89 L 98.27 19.84 C 98.52 24.75 101.02 28.98 106.13 33.15 C 110.42 36.64 116.17999999999999 38.1 121.17999999999999 36.96 C 126.69999999999999 35.7 130.07999999999998 32.92 132.14 27.93 L 133.05999999999997 28.31 C 130.85999999999999 33.629999999999995 127.25999999999998 36.599999999999994 121.39999999999998 37.93 C 120.17 38.21 118.9 38.35 117.63 38.35 z" stroke-linecap="round" />
</g>
		<g transform="matrix(1 0 0 1 38.845 -41.66)"  >
<polygon style="stroke: none; stroke-width: 1; stroke-dasharray: none; stroke-linecap: butt; stroke-dashoffset: 0; stroke-linejoin: miter; stroke-miterlimit: 4; fill: rgb(170,187,207); fill-rule: nonzero; opacity: 1;"  paint-order="stroke"  points="-39.829999999999984,43.06999999999999 1.6599999999999966,-43.07000000000001 2.5600000000000023,-42.64 -37.03999999999999,39.59 39.21000000000001,-20.85 39.83000000000001,-20.060000000000002 " />
</g>
		<g transform="matrix(1 0 0 1 14.579360590125816 -18.569999999999993)"  >
<path style="stroke: none; stroke-width: 1; stroke-dasharray: none; stroke-linecap: butt; stroke-dashoffset: 0; stroke-linejoin: miter; stroke-miterlimit: 4; fill: rgb(170,187,207); fill-rule: nonzero; opacity: 1;"  paint-order="stroke"  transform=" translate(-112.24436059012581, -81.43)" d="M 116.39 85.67 C 114.28 85.67 112.15 84.73 110.55 83.09 C 108.94 81.45 108.03999999999999 79.3 108.08 77.19 L 109.08 77.21 C 109.05 79.05 109.84 80.94 111.27 82.38999999999999 C 112.69 83.83999999999999 114.56 84.66999999999999 116.39999999999999 84.66999999999999 C 116.39999999999999 84.66999999999999 116.39999999999999 84.66999999999999 116.41 84.66999999999999 L 116.39 85.67 C 116.4 85.67 116.39 85.67 116.39 85.67 z" stroke-linecap="round" />
</g>
		<g transform="matrix(1 0 0 1 30.16422342310787 -36.955)"  >
<path style="stroke: none; stroke-width: 1; stroke-dasharray: none; stroke-linecap: butt; stroke-dashoffset: 0; stroke-linejoin: miter; stroke-miterlimit: 4; fill: rgb(170,187,207); fill-rule: nonzero; opacity: 1;"  paint-order="stroke"  transform=" translate(-127.82922342310786, -63.045)" d="M 132.33 71.43 C 129 71.43 125.92000000000002 69.05000000000001 123.64000000000001 66.95 C 120.30000000000001 63.870000000000005 118.59000000000002 59.17 119.17000000000002 54.660000000000004 L 120.16000000000001 54.790000000000006 C 119.62 58.980000000000004 121.22000000000001 63.35000000000001 124.32000000000001 66.21000000000001 C 127.54 69.18 131.78 72.19000000000001 136.02 69.16000000000001 L 136.60000000000002 69.97000000000001 C 135.17 71.02 133.73 71.43 132.33 71.43 z" stroke-linecap="round" />
</g>
		<g transform="matrix(1 0 0 1 48.07901408970258 -58.709999999999994)"  >
<path style="stroke: none; stroke-width: 1; stroke-dasharray: none; stroke-linecap: butt; stroke-dashoffset: 0; stroke-linejoin: miter; stroke-miterlimit: 4; fill: rgb(170,187,207); fill-rule: nonzero; opacity: 1;"  paint-order="stroke"  transform=" translate(-145.74401408970257, -41.290000000000006)" d="M 150.45 54.92 C 149.04 54.92 147.56 54.74 145.98 54.38 C 140.60999999999999 53.150000000000006 135.89999999999998 49.22 133.39 43.870000000000005 C 131.54999999999998 39.940000000000005 129.41 33.980000000000004 132.05999999999997 27.660000000000004 L 132.97999999999996 28.050000000000004 C 131.06999999999996 32.59 131.48999999999995 37.480000000000004 134.28999999999996 43.45 C 136.63999999999996 48.45 141.19999999999996 52.27 146.19999999999996 53.410000000000004 C 151.71999999999997 54.67 155.96999999999997 53.63 159.99999999999997 50.03 L 160.66999999999996 50.78 C 157.53 53.57 154.27 54.92 150.45 54.92 z" stroke-linecap="round" />
</g>
		<g transform="matrix(1 0 0 1 48.08500000000001 -28.960000000000008)"  >
<polygon style="stroke: none; stroke-width: 1; stroke-dasharray: none; stroke-linecap: butt; stroke-dashoffset: 0; stroke-linejoin: miter; stroke-miterlimit: 4; fill: rgb(170,187,207); fill-rule: nonzero; opacity: 1;"  paint-order="stroke"  points="-49.58,29.810000000000002 25.169999999999987,-29.809999999999995 25.789999999999992,-29.01999999999999 -45.56,27.88000000000001 49.360000000000014,6.510000000000005 49.58000000000001,7.490000000000009 " />
</g>
		<g transform="matrix(1 0 0 1 20.9850127379312 -10.400000000000006)"  >
<path style="stroke: none; stroke-width: 1; stroke-dasharray: none; stroke-linecap: butt; stroke-dashoffset: 0; stroke-linejoin: miter; stroke-miterlimit: 4; fill: rgb(170,187,207); fill-rule: nonzero; opacity: 1;"  paint-order="stroke"  transform=" translate(-118.65001273793119, -89.6)" d="M 120.76 95.22 C 118.86 94.31 117.34 92.53999999999999 116.60000000000001 90.36 C 115.86000000000001 88.19 115.98 85.86 116.93 83.98 L 117.82000000000001 84.43 C 116.99000000000001 86.07000000000001 116.89 88.12 117.54 90.04 C 118.19000000000001 91.96000000000001 119.52000000000001 93.52000000000001 121.18 94.32000000000001 L 120.76 95.22 z" stroke-linecap="round" />
</g>
		<g transform="matrix(1 0 0 1 42.43719263751626 -20.765)"  >
<path style="stroke: none; stroke-width: 1; stroke-dasharray: none; stroke-linecap: butt; stroke-dashoffset: 0; stroke-linejoin: miter; stroke-miterlimit: 4; fill: rgb(170,187,207); fill-rule: nonzero; opacity: 1;"  paint-order="stroke"  transform=" translate(-140.10219263751625, -79.235)" d="M 144.33 89.98 C 139.39000000000001 89.98 136.89000000000001 85.23 135.41000000000003 81.5 C 133.74000000000004 77.28 134.24000000000004 72.28999999999999 136.71000000000004 68.49 L 137.55000000000004 69.03 C 135.25000000000003 72.57000000000001 134.79000000000005 77.2 136.34000000000003 81.13 C 137.95000000000005 85.19999999999999 140.46000000000004 89.75 145.60000000000002 88.86999999999999 L 145.77 89.85 C 145.27 89.94 144.79 89.98 144.33 89.98 z" stroke-linecap="round" />
</g>
		<g transform="matrix(1 0 0 1 67.329480129946 -33.265)"  >
<path style="stroke: none; stroke-width: 1; stroke-dasharray: none; stroke-linecap: butt; stroke-dashoffset: 0; stroke-linejoin: miter; stroke-miterlimit: 4; fill: rgb(170,187,207); fill-rule: nonzero; opacity: 1;"  paint-order="stroke"  transform=" translate(-164.994480129946, -66.735)" d="M 170.93 83.72 C 167.44 83.72 164.25 82.46 160.99 79.86 C 156.68 76.42 154.14000000000001 70.84 154.20000000000002 64.93 C 154.24 60.59 154.9 54.290000000000006 160.04000000000002 49.75000000000001 L 160.70000000000002 50.50000000000001 C 157.02 53.760000000000005 155.27 58.35000000000001 155.20000000000002 64.94000000000001 C 155.14000000000001 70.47000000000001 157.60000000000002 75.88000000000001 161.61 79.08000000000001 C 166.04000000000002 82.61000000000001 170.32000000000002 83.52000000000001 175.51000000000002 82.02000000000001 L 175.79000000000002 82.98 C 174.09 83.47 172.48 83.72 170.93 83.72 z" stroke-linecap="round" />
</g>
		<g transform="matrix(1 0 0 1 47.91 0.9350000000000023)"  >
<polygon style="stroke: none; stroke-width: 1; stroke-dasharray: none; stroke-linecap: butt; stroke-dashoffset: 0; stroke-linejoin: miter; stroke-miterlimit: 4; fill: rgb(170,187,207); fill-rule: nonzero; opacity: 1;"  paint-order="stroke"  points="49.405,22.095 -49.624999999999986,-0.8250000000000028 43.58500000000001,-22.095 43.815,-21.125 -45.16499999999999,-0.8149999999999977 49.625,21.125 " />
</g>
		<g transform="matrix(1 0 0 1 23.052956194141657 -0.18500000000000227)"  >
<path style="stroke: none; stroke-width: 1; stroke-dasharray: none; stroke-linecap: butt; stroke-dashoffset: 0; stroke-linejoin: miter; stroke-miterlimit: 4; fill: rgb(170,187,207); fill-rule: nonzero; opacity: 1;"  paint-order="stroke"  transform=" translate(-120.71795619414165, -99.815)" d="M 120.55 105.71 C 119.23 104.05999999999999 118.64 101.80999999999999 118.91 99.53 C 119.19 97.25 120.31 95.21000000000001 121.97999999999999 93.92 L 122.58999999999999 94.71000000000001 C 121.13 95.83000000000001 120.14999999999999 97.63000000000001 119.89999999999999 99.65 C 119.64999999999999 101.67 120.16999999999999 103.65 121.32 105.09 L 120.55 105.71 z" stroke-linecap="round" />
</g>
		<g transform="matrix(1 0 0 1 45.66055032020384 0.14000000000001478)"  >
<path style="stroke: none; stroke-width: 1; stroke-dasharray: none; stroke-linecap: butt; stroke-dashoffset: 0; stroke-linejoin: miter; stroke-miterlimit: 4; fill: rgb(170,187,207); fill-rule: nonzero; opacity: 1;"  paint-order="stroke"  transform=" translate(-143.32555032020383, -100.14000000000001)" d="M 145.41 111.73 C 139.64 110.09 139.38 104.08 139.7 99.71000000000001 C 140.01999999999998 95.18 142.64 90.91000000000001 146.51999999999998 88.55000000000001 L 147.04 89.41000000000001 C 143.42999999999998 91.60000000000001 141 95.57000000000001 140.7 99.78000000000002 C 140.39 104.15000000000002 140.67 109.34000000000002 145.69 110.77000000000001 L 145.41 111.73 z" stroke-linecap="round" />
</g>
		<g transform="matrix(1 0 0 1 71.18891574201635 0.1700000000000017)"  >
<path style="stroke: none; stroke-width: 1; stroke-dasharray: none; stroke-linecap: butt; stroke-dashoffset: 0; stroke-linejoin: miter; stroke-miterlimit: 4; fill: rgb(170,187,207); fill-rule: nonzero; opacity: 1;"  paint-order="stroke"  transform=" translate(-168.85391574201634, -100.17)" d="M 175.44 118.56 C 169.77 117.60000000000001 166.07 114.75 163.46 109.33 C 161.07000000000002 104.36 161.20000000000002 98.23 163.83 92.93 C 165.75 89.04 169.07000000000002 83.65 175.68 81.78 L 175.95000000000002 82.74 C 171.22000000000003 84.08 167.65 87.44999999999999 164.73000000000002 93.36999999999999 C 162.28000000000003 98.32 162.14000000000001 104.27 164.37 108.88999999999999 C 166.83 113.98999999999998 170.29 116.66999999999999 175.62 117.57 L 175.44 118.56 z" stroke-linecap="round" />
</g>
		<g transform="matrix(1 0 0 1 45.015000000000015 31.164999999999992)"  >
<polygon style="stroke: none; stroke-width: 1; stroke-dasharray: none; stroke-linecap: butt; stroke-dashoffset: 0; stroke-linejoin: miter; stroke-miterlimit: 4; fill: rgb(170,187,207); fill-rule: nonzero; opacity: 1;"  paint-order="stroke"  points="32.66999999999999,31.805000000000007 -46.610000000000014,-31.804999999999993 46.609999999999985,-10.534999999999997 46.379999999999995,-9.554999999999993 -42.59,-29.864999999999995 33.28999999999999,31.025000000000006 " />
</g>
		<g transform="matrix(1 0 0 1 21.3579996849208 10.069999999999993)"  >
<path style="stroke: none; stroke-width: 1; stroke-dasharray: none; stroke-linecap: butt; stroke-dashoffset: 0; stroke-linejoin: miter; stroke-miterlimit: 4; fill: rgb(170,187,207); fill-rule: nonzero; opacity: 1;"  paint-order="stroke"  transform=" translate(-119.02299968492079, -110.07)" d="M 115.81 115.07 C 115.34 113.00999999999999 115.78 110.72999999999999 117.02 108.78999999999999 C 118.25999999999999 106.85 120.14999999999999 105.49999999999999 122.22 105.07 L 122.42 106.05 C 120.62 106.42999999999999 118.96000000000001 107.61999999999999 117.86 109.33 C 116.75999999999999 111.04 116.37 113.05 116.78 114.85 L 115.81 115.07 z" stroke-linecap="round" />
</g>
		<g transform="matrix(1 0 0 1 42.22709232874382 21.084999999999994)"  >
<path style="stroke: none; stroke-width: 1; stroke-dasharray: none; stroke-linecap: butt; stroke-dashoffset: 0; stroke-linejoin: miter; stroke-miterlimit: 4; fill: rgb(170,187,207); fill-rule: nonzero; opacity: 1;"  paint-order="stroke"  transform=" translate(-139.89209232874381, -121.085)" d="M 135.59 131.29 C 131.1 127.3 133.48 121.77999999999999 135.66 117.97999999999999 C 137.92 114.03999999999999 142.12 111.32 146.64 110.88 L 146.73999999999998 111.88 C 142.54 112.28999999999999 138.63 114.82 136.52999999999997 118.47999999999999 C 134.34999999999997 122.27999999999999 132.35999999999999 127.07999999999998 136.25999999999996 130.54999999999998 L 135.59 131.29 z" stroke-linecap="round" />
</g>
		<g transform="matrix(1 0 0 1 66.70500000000001 33.83327831963345)"  >
<path style="stroke: none; stroke-width: 1; stroke-dasharray: none; stroke-linecap: butt; stroke-dashoffset: 0; stroke-linejoin: miter; stroke-miterlimit: 4; fill: rgb(170,187,207); fill-rule: nonzero; opacity: 1;"  paint-order="stroke"  transform=" translate(-164.37, -133.83327831963345)" d="M 159.68 150.47 C 154.98000000000002 147.14 152.89000000000001 142.97 152.89000000000001 136.96 C 152.89000000000001 131.45000000000002 155.67000000000002 125.98 160.34 122.34 C 163.76 119.67 169.09 116.25 175.85 117.44 L 175.68 118.42 C 170.83 117.58 166.16 119.07000000000001 160.96 123.13 C 156.6 126.53 153.9 131.82999999999998 153.9 136.96 C 153.9 142.62 155.86 146.54000000000002 160.27 149.66 L 159.68 150.47 z" stroke-linecap="round" />
</g>
		<g transform="matrix(1 0 0 1 36.22 44.58500000000001)"  >
<polygon style="stroke: none; stroke-width: 1; stroke-dasharray: none; stroke-linecap: butt; stroke-dashoffset: 0; stroke-linejoin: miter; stroke-miterlimit: 4; fill: rgb(170,187,207); fill-rule: nonzero; opacity: 1;"  paint-order="stroke"  points="6.445000000000022,45.85499999999999 -37.374999999999986,-45.855000000000004 37.375,13.754999999999995 36.754999999999995,14.534999999999997 -34.594999999999985,-42.36500000000001 7.355000000000018,45.42499999999998 " />
</g>
		<g transform="matrix(1 0 0 1 14.860000000000014 18.336689526874466)"  >
<path style="stroke: none; stroke-width: 1; stroke-dasharray: none; stroke-linecap: butt; stroke-dashoffset: 0; stroke-linejoin: miter; stroke-miterlimit: 4; fill: rgb(170,187,207); fill-rule: nonzero; opacity: 1;"  paint-order="stroke"  transform=" translate(-112.525, -118.33668952687447)" d="M 108.44 121.67 L 107.47 121.45 C 107.94 119.39 109.33 117.52 111.28 116.32000000000001 C 113.24 115.11000000000001 115.53 114.71000000000001 117.58 115.22000000000001 L 117.34 116.19000000000001 C 115.55 115.75000000000001 113.53 116.11000000000001 111.81 117.17000000000002 C 110.08 118.24 108.85 119.88 108.44 121.67 z" stroke-linecap="round" />
</g>
		<g transform="matrix(1 0 0 1 29.68358503046204 37.43095352776379)"  >
<path style="stroke: none; stroke-width: 1; stroke-dasharray: none; stroke-linecap: butt; stroke-dashoffset: 0; stroke-linejoin: miter; stroke-miterlimit: 4; fill: rgb(170,187,207); fill-rule: nonzero; opacity: 1;"  paint-order="stroke"  transform=" translate(-127.34858503046203, -137.4309535277638)" d="M 118.26 144.65 C 115.94000000000001 139.11 120.48 135.17000000000002 124.10000000000001 132.69 C 127.84 130.12 132.81 129.5 137.07000000000002 131.06 L 136.72000000000003 132 C 132.76000000000002 130.54 128.14000000000001 131.12 124.66000000000003 133.51 C 121.05000000000003 135.98999999999998 117.17000000000003 139.45 119.18000000000002 144.26 L 118.26 144.65 z" stroke-linecap="round" />
</g>
		<g transform="matrix(1 0 0 1 47.35911104606967 59.48266340138005)"  >
<path style="stroke: none; stroke-width: 1; stroke-dasharray: none; stroke-linecap: butt; stroke-dashoffset: 0; stroke-linejoin: miter; stroke-miterlimit: 4; fill: rgb(170,187,207); fill-rule: nonzero; opacity: 1;"  paint-order="stroke"  transform=" translate(-145.02411104606966, -159.48266340138005)" d="M 131.65 172.38 C 128.86 167.34 128.79 162.68 131.4 157.26 C 133.79 152.29 138.67000000000002 148.57999999999998 144.45000000000002 147.32 C 148.69000000000003 146.4 154.97000000000003 145.64 160.55 149.63 L 159.97 150.44 C 155.97 147.57 151.11 146.89 144.66 148.29 C 139.26 149.45999999999998 134.51999999999998 153.07 132.3 157.69 C 129.84 162.79 129.91000000000003 167.17 132.53 171.89 L 131.65 172.38 z" stroke-linecap="round" />
</g>
		<g transform="matrix(1 0 0 1 20.10000000000001 49.17500000000001)"  >
<polygon style="stroke: none; stroke-width: 1; stroke-dasharray: none; stroke-linecap: butt; stroke-dashoffset: 0; stroke-linejoin: miter; stroke-miterlimit: 4; fill: rgb(170,187,207); fill-rule: nonzero; opacity: 1;"  paint-order="stroke"  points="-19.894999999999996,50.82499999999999 -20.894999999999996,50.82499999999999 -20.595,-50.82500000000002 20.894999999999996,35.32499999999999 19.99499999999999,35.754999999999995 -19.605000000000004,-46.47500000000001 " />
</g>
		<g transform="matrix(1 0 0 1 5.430000000000007 22.38022142186786)"  >
<path style="stroke: none; stroke-width: 1; stroke-dasharray: none; stroke-linecap: butt; stroke-dashoffset: 0; stroke-linejoin: miter; stroke-miterlimit: 4; fill: rgb(170,187,207); fill-rule: nonzero; opacity: 1;"  paint-order="stroke"  transform=" translate(-103.095, -122.38022142186786)" d="M 97.97 124.2 L 97.19 123.58 C 98.5 121.92999999999999 100.57 120.85 102.85 120.61 C 105.13 120.37 107.38 121.01 109 122.35 L 108.36 123.11999999999999 C 106.94 121.94999999999999 104.97 121.38999999999999 102.95 121.6 C 100.94 121.81 99.12 122.76 97.97 124.2 z" stroke-linecap="round" />
</g>
		<g transform="matrix(1 0 0 1 10.610000000000014 44.980603928858045)"  >
<path style="stroke: none; stroke-width: 1; stroke-dasharray: none; stroke-linecap: butt; stroke-dashoffset: 0; stroke-linejoin: miter; stroke-miterlimit: 4; fill: rgb(170,187,207); fill-rule: nonzero; opacity: 1;"  paint-order="stroke"  transform=" translate(-108.275, -144.98060392885805)" d="M 97.85 149.21 L 96.85 149.16 C 97.16999999999999 143.16 102.97 141.57999999999998 107.3 140.91 C 111.78999999999999 140.22 116.53999999999999 141.81 119.7 145.07 L 118.98 145.76999999999998 C 116.04 142.73999999999998 111.62 141.26 107.46000000000001 141.89999999999998 C 103.13 142.57 98.12 144 97.85 149.21 z" stroke-linecap="round" />
</g>
		<g transform="matrix(1 0 0 1 17.147250313567298 71.16256689136691)"  >
<path style="stroke: none; stroke-width: 1; stroke-dasharray: none; stroke-linecap: butt; stroke-dashoffset: 0; stroke-linejoin: miter; stroke-miterlimit: 4; fill: rgb(170,187,207); fill-rule: nonzero; opacity: 1;"  paint-order="stroke"  transform=" translate(-114.81225031356729, -171.1625668913669)" d="M 96.88 179.95 C 96.55 174.2 98.50999999999999 169.97 103.21 166.22 C 107.52 162.78 113.53 161.55 119.28 162.93 C 123.5 163.94 129.49 165.98000000000002 132.78 172 L 131.9 172.48 C 129.54 168.16 125.46000000000001 165.44 119.04 163.89999999999998 C 113.67 162.60999999999999 107.84 163.79999999999998 103.83000000000001 166.99999999999997 C 99.4 170.52999999999997 97.57000000000001 174.50999999999996 97.87000000000002 179.89 L 96.88 179.95 z" stroke-linecap="round" />
</g>
</g>
</g>
		<g transform="matrix(0.6949533722925171 0 0 0.7338188692770808 12.195192147310308 -9.536787110241619)"  >
<g style=""  paint-order="stroke"   >
		<g transform="matrix(1 0 0 1 0 0)"  >
<path style="stroke: none; stroke-width: 1; stroke-dasharray: none; stroke-linecap: butt; stroke-dashoffset: 0; stroke-linejoin: miter; stroke-miterlimit: 4; fill: rgb(0,0,0); fill-rule: nonzero; opacity: 1;"  paint-order="stroke"  transform=" translate(-124.99997500000003, -73.57721470400635)" d="M 245.89368 40.52458 C 241.99716999999998 39.48262 238.38676999999998 38.94311 234.33136 38.9437 C 231.21114 38.94416 228.15166 39.2193 225.05428999999998 39.36372 C 223.65592999999998 39.42895 222.32869999999997 39.32795 220.98798 39.57071 C 220.38200999999998 39.6804 219.65401 39.87831 218.94626 39.999159999999996 C 218.88497999999998 39.958859999999994 218.82319999999999 39.91224999999999 218.76346999999998 39.87999 C 217.27994999999999 39.08034 215.86963999999998 39.67618 214.35600999999997 40.08769 C 211.89367999999996 40.75715 209.46199999999996 41.504940000000005 206.96695999999997 42.03893 C 204.04250999999996 42.6647 201.08220999999998 43.06019 198.21849999999998 43.84601 C 197.15608999999998 44.13738 196.02463999999998 44.35248 194.98976 44.69694 C 194.72233 44.636449999999996 194.44142 44.626 194.17139999999998 44.66825 C 192.88779999999997 44.86907 191.65560999999997 45.36665 190.34291 45.78667 C 188.92533999999998 46.24017 188.02702 46.86965 186.93035999999998 47.83865 C 186.66500999999997 48.07303 186.31659 48.43897 185.95362999999998 48.75605 C 185.63584999999998 48.952200000000005 185.30767999999998 49.1146 184.93328999999997 49.138870000000004 C 183.59618999999998 49.225390000000004 182.67554999999996 49.05144000000001 181.35195999999996 49.47704 C 179.55428999999995 50.05491 177.78464999999997 50.618950000000005 176.13756999999995 51.55751 C 175.69774999999996 51.80819 175.25949999999995 52.07904 174.81449999999995 52.330690000000004 C 173.84659999999997 52.060810000000004 172.87818999999996 51.79131 171.90613999999997 51.531620000000004 C 170.34419999999997 51.1144 169.38149999999996 51.499810000000004 167.85073999999997 51.86979 C 167.74688999999998 51.89491 167.61914 51.93009 167.48881999999998 51.96618 C 166.85428 51.87064 166.21507999999997 51.792100000000005 165.57327999999998 51.726420000000005 C 166.85896 50.595470000000006 167.98729999999998 49.27299000000001 169.10058999999998 48.004900000000006 C 170.85101999999998 46.01185000000001 172.75928 43.617430000000006 173.92397999999997 41.20515 C 174.89446999999998 39.194 175.81406999999996 35.875350000000005 175.45006999999998 33.60678 C 175.20705999999998 32.09151 174.17788 30.75859 173.36941 29.51483 C 169.89400999999998 24.16887 165.62154999999998 19.646 160.35834999999997 16.82909 C 160.28824999999998 16.37358 160.19219999999999 15.921100000000001 160.10962999999998 15.49337 C 159.93463999999997 14.584990000000001 159.32347 13.859070000000001 158.85405999999998 13.0657 C 157.87317999999996 11.40738 157.30925999999997 9.18918 155.88857999999996 7.85351 C 154.28302999999997 6.34389 152.32334999999995 5.23035 150.63108999999997 3.84419 C 149.98772999999997 3.31747 149.31477999999998 2.8953800000000003 148.71657999999996 2.3101000000000003 C 148.23003999999997 1.8334200000000003 147.74297999999996 1.2909300000000004 147.09026999999998 1.0225400000000002 C 146.93811999999997 0.9600300000000003 146.77871999999996 0.9023300000000002 146.61722999999998 0.8493100000000002 C 146.1042 0.36419000000000024 145.42291999999998 0.018950000000000244 144.82889999999998 0.001100000000000212 C 142.62308999999996 -0.06523999999999978 141.59703999999996 2.91155 140.38248999999996 4.40311 C 139.59113999999997 5.37549 138.52614999999997 6.17533 137.62574999999995 7.07677 C 137.09663999999995 7.60642 136.40290999999996 8.23985 135.97295999999994 8.93955 C 135.37735999999995 8.91644 134.78955999999994 9.145240000000001 134.25005999999993 9.70409 C 133.23023999999992 10.76013 132.27219999999994 12.101310000000002 131.74202999999994 13.477540000000001 C 131.38217999999995 14.412590000000002 131.40399999999994 15.403210000000001 131.12515999999994 16.349690000000002 C 130.89666999999994 17.12338 130.26474999999994 17.539700000000003 130.15413999999993 18.307100000000002 C 130.12506999999994 18.50825 130.12402999999992 18.732310000000002 130.14531999999994 18.96292 C 126.63668999999994 21.5446 123.86332999999993 25.09887 122.35229999999994 29.73279 C 121.24938999999995 33.11602 121.44099999999995 36.625750000000004 122.73394999999994 39.95653 C 123.39185999999994 41.65204 124.67182999999994 43.21092 125.75706999999994 44.67588 C 126.18077999999994 45.24746 126.82881999999994 45.83473 127.41349999999994 46.44733 C 127.49190999999995 46.92797 127.56615999999994 47.40815 127.58796999999994 47.88477 C 127.62223999999995 48.641000000000005 127.66740999999995 49.49018 127.59211999999994 50.24103 C 127.54642999999994 50.693760000000005 127.24162999999994 51.21023 127.38805999999994 51.6786 C 127.40467999999994 51.731120000000004 127.44257999999994 51.7894 127.46957999999994 51.84483 C 126.99913999999994 51.77012 126.49492999999994 51.780120000000004 125.90089999999994 51.91648 C 124.58197999999993 52.21915 123.08703999999993 52.66136 121.96647999999993 53.41344 C 121.53912999999993 53.70026 121.07647999999993 53.97164 120.59771999999994 54.23386 C 120.57382999999994 54.23411 120.54785999999994 54.23645 120.52449999999993 54.23645 C 119.22582999999993 54.23703 117.92924999999994 54.00674 116.66486999999994 54.02842 C 115.68760999999994 54.04517 114.78826999999994 54.31252 113.94239999999994 54.71131 C 113.53893999999994 52.239509999999996 111.06258999999993 49.7078 109.97214999999994 47.574239999999996 C 108.11008999999994 43.931189999999994 106.51647999999994 40.183189999999996 104.82888999999994 36.486059999999995 C 104.34182999999994 35.41904999999999 104.03961999999994 34.16278 103.00887999999995 33.42950999999999 C 102.27931999999994 32.91056999999999 101.51548999999994 32.906299999999995 100.73971999999995 32.701699999999995 C 100.36376999999995 31.663119999999996 100.06467999999995 30.805369999999996 99.15233999999995 30.070099999999996 C 99.03030999999996 29.971759999999996 98.91866999999995 29.894399999999997 98.80495999999995 29.812229999999996 C 98.28674999999996 28.512729999999998 97.72126999999995 27.222099999999998 97.04778999999995 25.962899999999998 C 96.53528999999995 25.004409999999996 96.16296999999994 24.100519999999996 95.37887999999995 23.799739999999996 C 95.06627999999995 22.876569999999997 94.66281999999995 22.012129999999996 94.21781999999995 21.431589999999996 C 92.70677999999995 19.458219999999997 89.20956999999994 18.805319999999995 86.94612999999994 18.276569999999996 C 85.74767999999995 17.996629999999996 85.11469999999994 18.124949999999995 84.86701999999994 18.530089999999998 C 83.22148999999995 18.087419999999998 81.34281999999995 17.89212 79.70454999999994 17.894509999999997 C 76.14918999999995 17.899639999999998 72.59018999999994 17.609759999999998 69.03535999999994 17.479759999999995 C 65.61968999999993 17.354749999999996 62.23670999999994 17.273549999999997 58.83401999999994 16.923509999999997 C 56.40752999999994 16.673879999999997 53.61546999999994 16.121639999999996 51.18689999999994 16.337849999999996 C 50.22367999999994 16.423589999999997 50.005589999999934 16.170129999999997 49.628089999999936 17.270309999999995 C 49.626539999999935 17.274789999999996 49.625489999999935 17.281929999999996 49.62444999999994 17.286539999999995 C 46.27314999999994 18.789469999999994 43.57768999999994 21.667189999999994 40.47303999999994 23.512249999999995 C 35.96691999999994 26.189799999999995 32.12232999999994 29.676889999999993 28.13286999999994 33.117749999999994 C 23.80485999999994 36.85043999999999 19.668969999999938 40.70222999999999 15.47282999999994 44.561099999999996 C 11.98029999999994 47.77245 9.11918999999994 50.888709999999996 6.563919999999939 54.844939999999994 C 3.8908 58.98393 1.23323 63.82341 0 68.50602 C 3.0117 66.51168000000001 3.84978 61.807210000000005 6.15425 59.07941000000001 C 7.63621 57.32601000000001 9.023150000000001 55.60674000000001 10.51342 53.87780000000001 C 12.01407 52.13672000000001 13.13672 50.064890000000005 14.822230000000001 48.490700000000004 C 19.219820000000002 44.383750000000006 23.39207 40.28714000000001 28.16041 36.624030000000005 C 30.88912 34.527590000000004 33.48644 32.249280000000006 36.194379999999995 30.115770000000005 C 38.58141 28.235470000000007 40.790859999999995 25.903610000000004 43.36378 24.302800000000005 C 45.16198 23.183730000000004 47.206289999999996 21.873000000000005 49.1857 20.942880000000006 C 49.35758 20.862070000000006 49.546589999999995 20.787950000000006 49.739749999999994 20.713560000000005 C 50.604319999999994 22.857640000000004 53.68558999999999 21.544040000000006 55.359159999999996 21.247680000000006 C 58.822089999999996 20.634440000000005 62.726389999999995 21.160700000000006 66.2101 21.360880000000005 C 69.50998 21.550470000000004 72.83270999999999 21.503740000000004 76.1191 21.913110000000007 C 77.97025000000001 22.143660000000008 79.83283 22.39317000000001 81.67879 22.641500000000008 C 82.96292000000001 22.814210000000006 84.11307000000001 23.329510000000006 85.42732000000001 23.304140000000007 C 85.80742000000001 23.296800000000008 86.13559000000001 23.220280000000006 86.42118 23.100210000000008 C 86.62629000000001 23.40170000000001 86.84749000000001 23.641800000000007 87.08168 23.723510000000008 C 87.86056 23.99508000000001 88.98216000000001 23.338090000000008 89.99783000000001 23.720330000000008 C 91.59974000000001 24.323120000000007 91.55404000000001 26.03232000000001 91.75137000000001 27.629110000000008 C 89.78701000000001 27.093630000000008 87.37455000000001 27.012290000000007 85.97203 26.771950000000007 C 84.18319000000001 26.465390000000006 83.69508 26.866390000000006 83.30148 27.87590000000001 C 79.34785 27.479060000000008 75.58063 26.34097000000001 71.55534 26.35578000000001 C 70.1035 26.36117000000001 67.67285 25.70412000000001 66.56631 26.99707000000001 C 66.44116 27.14370000000001 66.34303 27.357700000000012 66.26567 27.59760000000001 C 65.85754 27.75286000000001 65.4764 27.94057000000001 65.24325 28.10699000000001 C 63.69066 29.21710000000001 62.40758 30.89216000000001 61.315580000000004 32.43189000000001 C 60.63535 33.39148000000001 59.91358 34.32089000000001 59.189220000000006 35.24776000000001 C 58.099830000000004 36.51041000000001 57.05715000000001 37.82166000000001 56.05550000000001 39.106750000000005 C 53.16843000000001 42.81120000000001 50.65261000000001 45.885540000000006 50.32340000000001 50.626810000000006 C 50.15672000000001 53.033570000000005 50.36130000000001 55.48856000000001 51.01661000000001 57.662760000000006 C 51.71190000000001 55.342650000000006 51.20770000000001 52.53275000000001 51.71397000000001 50.10996000000001 C 52.17715000000001 47.89493000000001 53.03288000000001 45.71021000000001 54.45357000000001 43.93760000000001 C 55.951630000000016 42.06951000000001 57.514080000000014 40.13501000000001 59.03446000000001 38.40750000000001 C 60.93338000000001 36.25057000000001 62.60229000000001 33.631360000000015 64.78369 31.726990000000015 C 65.33930000000001 31.241740000000014 65.93125 30.751240000000013 66.52529000000001 30.348030000000016 C 66.56839000000001 30.318890000000014 66.63745000000002 30.288970000000017 66.69353000000001 30.259560000000015 C 67.75125000000001 30.946270000000016 71.26611000000001 30.176740000000013 72.45106000000001 30.236450000000016 C 75.11694000000001 30.370870000000014 77.76515 30.262930000000015 80.42324 30.378400000000017 C 81.12476000000001 30.408850000000015 81.81017000000001 30.47933000000002 82.48625000000001 30.571760000000015 C 82.36838000000002 33.72638000000001 81.50693000000001 36.925150000000016 81.94570000000002 40.118910000000014 C 82.35644000000002 43.11302000000001 84.64948000000001 45.93453000000002 85.73266000000001 48.71841000000001 C 86.12315000000001 49.72356000000001 86.45080000000002 51.05105000000001 87.33457000000001 51.728620000000014 C 87.59472000000001 50.20999000000001 86.51986000000001 48.590750000000014 86.14495000000001 47.14870000000001 C 85.76641000000001 45.69393000000001 85.38268000000001 44.14259000000001 84.88108000000001 42.66626000000001 C 83.70443000000002 39.20132000000001 83.75013000000001 35.851780000000005 84.30781000000002 32.17491000000001 C 84.37273000000002 31.74523000000001 84.44697000000002 31.30886000000001 84.49163000000001 30.907330000000012 C 85.97620000000002 31.191950000000013 87.44414000000002 31.52758000000001 88.96245000000002 31.765210000000014 C 90.26267000000001 31.968700000000013 91.60651000000001 31.985770000000013 92.91348000000002 32.15076000000001 C 93.37043000000003 32.20846000000001 93.87618000000002 32.361260000000016 94.38453000000003 32.49730000000001 C 95.68268000000003 35.79050000000001 95.95892000000002 39.27914000000001 96.92941000000003 42.71319000000001 C 98.13098000000004 46.96436000000001 97.67870000000003 51.33645000000001 98.62893000000004 55.605530000000016 C 99.34603000000004 58.83058000000002 100.84097000000004 62.374710000000015 102.65473000000004 65.08348000000001 C 102.94240000000005 65.51311000000001 103.45386000000005 66.43571000000001 104.00168000000005 67.05309000000001 C 102.63240000000005 68.52636000000001 101.17069000000005 69.94101 99.82217000000006 71.43692000000001 C 96.22216000000006 75.42976000000002 92.33654000000006 79.08813000000002 88.60411000000006 82.95283000000002 C 87.67931000000006 83.91047000000002 86.13036000000007 85.62591000000002 86.27679000000006 87.08644000000002 C 86.44088000000006 87.22398000000003 86.65689000000006 87.35418000000003 86.89731000000006 87.47803000000002 C 86.11167000000006 90.12767000000002 84.82858000000006 92.69989000000002 83.78644000000006 95.30584000000002 C 82.03446000000005 99.68929000000001 80.21654000000005 104.05957000000002 78.41523000000005 108.44106000000002 C 76.32054000000005 113.53453000000002 74.49795000000005 118.74450000000002 72.48894000000006 123.88964000000001 C 70.90000000000006 127.95952000000001 68.20610000000005 131.23091000000002 67.53469000000005 135.48175 C 66.98168000000005 138.98091 66.57355000000005 143.81117 67.97399000000006 147.15442000000002 C 68.83026000000005 146.05567000000002 68.51037000000005 142.88728 68.64850000000006 141.38780000000003 C 68.86608000000005 139.02264000000002 68.92526000000005 136.39610000000002 69.89680000000006 134.20256000000003 C 70.82886000000006 132.09821000000002 72.43130000000005 130.35596000000004 73.23407000000006 128.11783000000003 C 74.04567000000006 125.85354000000002 75.40041000000006 123.93021000000003 76.12634000000006 121.64885000000002 C 76.85694000000005 119.35417000000002 77.93750000000006 117.28156000000003 78.82026000000006 115.12281000000003 C 79.97197000000006 112.30421000000003 80.65271000000006 109.27252000000003 81.78003000000007 106.41499000000003 C 83.61248000000006 101.76893000000003 85.85985000000007 97.34797000000003 88.16016000000006 92.93693000000003 C 88.61659000000006 92.06166000000003 88.99825000000006 91.11992000000004 89.54710000000006 90.30144000000003 C 89.90642000000005 89.76576000000003 90.97506000000006 88.87250000000003 91.15472000000005 88.17734000000003 C 91.55506000000005 88.10166000000002 91.92166000000006 87.98430000000003 92.19323000000006 87.77998000000002 C 93.01262000000006 83.39413000000002 95.97758000000006 80.50172000000002 99.08588000000006 77.60901000000003 C 100.80046000000006 76.01327000000002 102.44964000000006 74.28200000000002 104.19797000000005 72.70559000000003 C 104.99504000000006 71.98681000000003 105.63269000000005 71.20312000000003 106.30772000000006 70.45766000000003 C 105.97073000000006 71.28887000000003 105.69032000000006 72.15576000000003 105.37721000000006 72.90635000000003 C 104.34440000000006 75.38646000000003 106.60889000000006 77.37795000000003 106.90124000000006 79.70825000000004 C 107.69985000000005 79.68909000000004 107.63183000000006 77.25593000000003 107.51552000000005 76.60043000000003 C 107.28549000000005 75.30819000000002 106.36121000000006 74.49932000000003 106.76986000000005 73.21344000000003 C 107.10323000000005 72.16531000000003 107.78035000000006 70.88457000000004 108.52496000000005 70.04935000000003 C 108.97982000000005 69.53846000000003 109.34176000000005 69.45156000000003 109.82103000000005 69.24469000000003 C 109.93319000000005 69.93271000000003 110.05626000000005 70.62845000000003 110.17205000000006 71.34586000000003 C 110.58486000000005 73.90976000000003 111.20225000000005 75.32663000000004 113.94758000000006 74.88058000000004 C 113.70144000000006 75.00573000000004 113.48492000000006 75.13898000000003 113.33849000000006 75.27132000000003 C 112.72473000000006 75.82732000000003 112.19819000000007 77.10716000000004 111.82745000000007 77.90377000000004 C 110.81386000000008 80.08193000000004 109.84128000000007 83.29146000000004 110.02250000000006 85.63843000000004 C 111.12904000000006 85.72029000000005 112.62087000000007 78.84992000000004 113.59189000000006 77.69573000000004 C 114.48501000000006 76.63430000000004 115.94153000000006 76.47132000000003 117.19035000000007 76.08026000000004 C 117.52942000000007 75.97393000000004 117.75946000000006 75.85982000000004 117.92042000000006 75.74352000000003 C 118.06996000000007 76.38324000000003 117.88200000000006 77.24917000000003 117.91056000000006 77.85209000000003 C 117.99313000000006 79.57577000000003 117.90173000000006 81.85135000000004 120.41235000000006 81.80501000000004 C 122.17679000000005 81.77236000000003 123.89502000000006 79.03211000000005 124.93457000000006 77.74772000000004 C 125.53743000000007 77.00233000000004 126.18598000000006 76.41731000000004 126.42328000000006 75.43014000000004 C 126.62008000000006 74.61029000000003 126.38122000000006 73.38842000000004 126.75093000000007 72.64237000000004 C 126.97421000000007 72.19127000000005 127.79049000000006 71.55283000000004 128.36063000000007 71.92995000000005 C 128.74178000000006 72.18218000000005 128.74749000000008 73.42652000000005 129.04502000000008 73.89852000000005 C 129.86442000000008 75.19881000000005 132.61648000000008 75.98334000000004 134.03301000000008 75.22983000000005 C 135.38672000000008 74.50942000000005 135.93714000000008 73.14637000000005 136.84583000000006 72.07781000000006 C 137.39158000000006 71.43599000000006 137.58059000000006 71.63144000000005 138.32676000000006 71.58665000000006 C 138.79461000000006 71.55861000000006 139.10981000000007 71.48020000000007 139.41460000000006 71.34494000000007 C 141.91431000000006 71.46963000000007 144.23072000000008 70.71327000000007 146.40277000000006 69.11305000000007 C 147.48958000000007 68.31222000000007 148.58885000000006 67.49913000000008 149.66736000000006 66.66150000000007 C 150.53504000000007 66.24383000000007 151.43076000000005 65.88138000000008 152.24754000000007 65.68887000000008 C 153.05810000000008 65.49799000000007 153.92839000000006 65.63518000000008 154.74051000000009 65.44878000000008 C 155.3345300000001 65.31248000000008 155.8896200000001 65.05162000000009 156.47015000000007 64.85624000000008 C 158.81408000000008 70.24289000000009 160.82205000000008 75.77934000000009 162.64413000000008 81.40662000000009 C 163.5424500000001 84.18011000000008 164.1624400000001 86.96840000000009 164.96157000000008 89.7114400000001 C 165.38373000000007 91.15972000000009 165.14591000000007 92.47396000000009 165.34946000000008 93.9511900000001 C 165.5680600000001 95.5370700000001 166.0327900000001 97.0793300000001 166.3947200000001 98.6443100000001 C 166.9466900000001 101.0289400000001 167.6809300000001 104.1148300000001 167.5547500000001 106.5465100000001 C 167.6321100000001 106.6066100000001 167.84500000000008 106.7252000000001 167.9296400000001 106.7620000000001 C 169.14264000000009 104.1388500000001 168.3305200000001 100.3827200000001 168.0568700000001 97.58437000000009 C 167.69547000000009 93.88764000000009 167.72974000000008 89.82523000000009 166.57698000000008 86.27836000000009 C 164.25641000000007 79.13603000000009 161.85069000000007 72.06900000000009 159.42212000000006 64.94892000000009 C 159.32710000000006 64.66943000000009 159.23259000000007 64.36956000000009 159.13809000000006 64.06081000000009 C 162.93231000000006 62.89832000000009 166.75093000000007 61.35793000000009 170.24138000000005 59.59987000000009 C 172.21405000000004 58.60614000000009 173.91982000000004 56.99663000000009 175.99529000000004 56.23735000000009 C 176.66617000000005 56.42888000000009 177.33341000000004 56.60349000000009 177.99080000000004 56.74317000000009 C 181.06688000000003 57.39686000000009 184.01003000000003 57.59274000000009 187.04250000000005 58.81390000000009 C 188.52810000000005 59.411960000000086 189.89739000000006 60.38303000000009 191.35962000000004 60.89950000000009 C 192.73981000000003 61.38715000000009 193.27100000000004 61.95502000000009 194.37911000000003 62.98595000000009 C 195.87404000000004 64.37632000000009 197.58396000000002 65.67467000000009 199.01972000000004 67.1980500000001 C 199.92686000000003 68.1602400000001 200.92902000000004 69.0552400000001 201.77074000000005 70.07792000000009 C 202.44422000000006 70.8958900000001 203.28853000000004 71.50134000000008 203.92411000000004 72.33807000000009 C 205.79447000000005 74.79882000000009 206.18600000000004 78.17154000000009 208.08804000000003 80.54832000000009 C 208.28174000000004 77.52475000000008 206.62217000000004 73.45162000000009 205.03584000000004 70.93854000000009 C 204.12298000000004 69.49208000000009 202.59378000000004 68.4724500000001 201.50645000000003 67.1814400000001 C 199.97204000000002 65.3593700000001 198.26005000000004 63.67521000000009 196.43434000000002 62.1201600000001 C 193.19987000000003 59.3651100000001 190.68510000000003 56.7000800000001 186.47029000000003 55.5862700000001 C 185.05998000000002 55.2135800000001 183.65539000000004 54.8248400000001 182.25340000000003 54.431110000000096 C 182.45955000000004 54.3909300000001 182.66569000000004 54.3501700000001 182.88325000000003 54.296230000000094 C 183.92228000000003 54.038800000000094 185.92247000000003 53.609900000000096 186.72265000000004 52.822960000000094 C 187.24139000000005 52.31214000000009 187.36912000000004 51.7119400000001 188.08311000000003 51.270510000000094 C 189.65387000000004 50.29905000000009 191.63430000000002 50.434240000000095 193.13392000000005 49.344000000000094 C 193.65994000000003 48.961570000000094 195.01676000000003 48.1077100000001 195.79200000000006 47.35906000000009 C 196.04385000000005 47.29987000000009 196.30296000000007 47.23891000000009 196.57972000000007 47.182650000000095 C 197.92460000000005 46.909190000000095 199.33283000000006 46.959180000000096 200.70211000000006 46.7203800000001 C 201.85487000000006 46.5193000000001 202.85651000000007 46.1453700000001 203.96616000000006 45.830240000000096 C 205.37854000000007 45.428980000000095 206.86570000000006 45.3455100000001 208.26874000000007 44.97860000000009 C 210.58670000000006 44.372300000000095 212.90520000000006 43.73965000000009 215.26938000000007 43.33345000000009 C 216.87233000000006 43.058050000000094 219.08333000000007 43.41491000000009 220.57723000000007 42.87878000000009 C 220.62085000000008 42.59507000000009 220.57412000000008 42.28643000000009 220.47130000000007 41.97669000000009 C 221.30211000000008 41.90153000000009 222.13136000000006 41.81099000000009 222.97412000000008 41.69649000000009 C 228.1713900000001 40.99037000000009 234.1018200000001 40.67348000000009 239.34166000000008 41.23241000000009 C 242.71373000000008 41.59206000000009 246.70889000000008 42.68621000000009 249.99995000000007 41.94029000000009 C 249.17018000000007 41.17919000000009 247.03706000000008 40.83032000000009 245.89366000000007 40.52459000000009 L 245.89368 40.52458 z M 101.92676 47.43966 C 101.93039 47.283240000000006 101.92209 47.11616 101.92416 46.95812 C 102.60907 48.47545 103.22542 49.9978 104.11596 51.4521 C 105.0958 53.05251 106.13743 54.450160000000004 107.26733 55.90097 C 107.98287 56.81967 108.35466 57.35308 108.75813 58.36043 C 108.96324 58.87223 109.22287 59.50553 109.54428999999999 60.13032 C 109.55622999999999 60.597069999999995 109.59828999999999 61.07628 109.63047999999999 61.56925 C 109.01257 62.333079999999995 108.27365999999999 63.011939999999996 107.50878999999999 63.669129999999996 C 107.07936 62.91744 106.26620999999999 62.21476 105.84561 61.556729999999995 C 105.19706 60.542559999999995 104.64819999999999 59.26875 104.14608999999999 58.18297 C 102.62725999999999 54.89613 101.93871999999999 51.030319999999996 101.92678999999998 47.43965 L 101.92676 47.43966 z M 136.47092 14.07467 C 136.87751 13.3011 137.90461000000002 12.216239999999999 138.20421000000002 11.22972 C 139.21208000000001 10.99619 139.68514000000002 9.8694 140.27864000000002 9.08979 C 141.23408000000003 7.83553 142.29907000000003 6.7774 143.54321000000002 5.80977 C 144.13206000000002 5.35179 144.65858000000003 4.68733 145.28949000000003 4.29762 C 145.84354000000002 3.9554300000000002 146.41731000000004 3.7912100000000004 146.91321000000002 3.349 C 147.94913000000003 3.9196 148.92221 4.58964 149.92906000000002 5.23351 C 151.46034000000003 6.212899999999999 152.56376000000003 7.84154 154.06650000000002 8.8935 C 154.66573000000002 9.31293 155.31325 9.59807 155.79616000000001 10.1381 C 156.02619 10.550189999999999 156.23441000000003 10.98307 156.44419000000002 11.4245 C 156.84611 12.26874 157.22983000000002 13.1226 157.61045000000001 13.97828 C 157.9002 14.63015 158.17489 15.28227 158.50046 15.91869 C 155.68347 14.68331 152.60012 13.92338 149.22028 13.7641 C 144.50748000000002 13.541929999999999 139.80353 14.25213 135.61882 15.93616 C 135.88936 15.29785 136.16092 14.66403 136.47092 14.07467 z M 144.31898 63.19974 C 144.21305 63.125029999999995 144.10142000000002 63.05026 143.97419000000002 62.975159999999995 C 143.22128000000004 62.530609999999996 142.29284 62.44902 141.50304000000003 62.06495999999999 C 140.66860000000003 61.65915999999999 139.95409000000004 61.05441999999999 139.24530000000001 60.45765999999999 C 138.87456 60.14538999999999 138.64609000000002 59.81740999999999 138.44305000000003 59.48171999999999 C 138.46693000000002 59.43718999999999 138.49134000000004 59.39026999999999 138.51419000000004 59.35436999999999 C 139.10458000000006 58.43242999999999 139.50493000000003 57.86571999999999 140.69611000000003 57.87792999999999 C 142.47562000000002 57.89616999999999 144.04897000000003 58.62435999999999 145.91466000000003 58.29469999999999 C 146.91994000000003 58.11710999999999 147.96781000000001 57.765899999999995 148.9139 57.25650999999999 C 149.10706000000002 57.19905999999999 149.30385 57.153499999999994 149.49390000000002 57.08436999999999 C 149.86362000000003 57.15693999999999 150.22866000000002 57.24877999999999 150.58487000000002 57.38352999999999 C 151.08440000000002 57.572799999999994 151.70439000000002 57.79485 152.14212000000003 58.08283999999999 C 152.55026000000004 58.35135999999999 152.87479000000005 58.78182999999999 153.22426000000004 59.16360999999999 C 153.19985000000005 59.17776999999999 153.18219000000005 59.18326999999999 153.15727000000004 59.19852999999999 C 151.40944000000005 60.27131999999999 150.09260000000003 62.25273999999999 148.18693000000005 62.98086999999999 C 147.00252 63.43353 145.627 63.26477 144.31898 63.19974 z" stroke-linecap="round" />
</g>
</g>
</g>
</g>
</g>
<g transform="matrix(1.9211538461538462 0 0 1.9211538461538462 856.2487580905481 444.0737746444501)" id="text-logo"  >
<g style=""  paint-order="stroke"   >
		<g transform="matrix(1 0 0 1 0 0)" id="text-logo-path-0"  >
<path style="stroke: none; stroke-width: 0; stroke-dasharray: none; stroke-linecap: butt; stroke-dashoffset: 0; stroke-linejoin: miter; stroke-miterlimit: 4; fill: rgb(0,0,0); fill-rule: nonzero; opacity: 1;"  paint-order="stroke"  transform=" translate(-193.57000000000002, 29.354999999999997)" d="M 5.37 -19.12 L 4.11 -19.12 L 4.11 -4.78 C 9.23 -1.17 15.6 0.84 22.64 0.84 C 36.65 0.84 46.21 -4.19 46.21 -14.84 C 46.21 -23.73 37.24 -28.26 28.52 -32.54 C 20.21 -36.57 12.08 -40.42 12.08 -47.64 C 12.08 -52.75 15.26 -57.37 25.41 -57.37 C 27.34 -57.37 29.19 -57.11 31.03 -56.53 C 39.84 -53.51 40.84 -42.1 40.84 -37.32 L 42.1 -37.32 L 42.1 -56.61 C 38.5 -58.12 32.04 -59.55 25.58 -59.55 C 13.5 -59.55 3.27 -55.77 3.27 -45.12 C 3.27 -35.14 12.75 -30.44 21.72 -26.33 C 29.77 -22.56 37.41 -19.37 37.41 -13.25 C 37.41 -5.03 28.85 -1.43 21.97 -1.43 C 10.15 -1.43 5.37 -6.54 5.37 -19.12 Z M 58.37 -0.42 L 58.37 0 L 81.86 0 L 81.86 -0.42 C 78.67 -0.42 74.31 -1.17 74.31 -4.53 L 74.31 -57.03 L 85.88 -57.03 C 95.95 -57.03 98.8 -49.82 98.8 -42.02 C 98.8 -34.47 96.45 -26.84 88.06 -26.84 L 87.56 -26.84 C 82.78 -26.84 78.92 -28.52 76.07 -31.53 L 74.9 -30.36 C 77.91 -27.09 82.36 -25.16 87.56 -25.16 C 99.89 -25.16 107.18 -31.95 107.18 -42.02 C 107.18 -51.58 100.31 -58.71 89.24 -58.71 L 58.37 -58.71 L 58.37 -58.29 C 61.56 -58.29 65.92 -57.53 65.92 -54.18 L 65.92 -4.53 C 65.92 -1.17 61.56 -0.42 58.37 -0.42 Z M 127.31 -55.02 L 146.52 -28.18 L 146.52 -4.53 C 146.52 -1.17 142.16 -0.42 138.97 -0.42 L 138.97 0 L 162.45 0 L 162.45 -0.42 C 159.27 -0.42 154.91 -1.17 154.91 -4.53 L 154.91 -30.44 L 172.44 -55.02 C 174.36 -57.79 179.4 -58.29 182.58 -58.29 L 182.58 -58.71 L 164.97 -58.71 L 164.97 -58.29 C 168.16 -58.29 171.85 -57.79 169.92 -55.02 L 153.65 -32.29 L 137.38 -55.02 C 135.45 -57.79 139.14 -58.29 142.33 -58.29 L 142.33 -58.71 L 117.17 -58.71 L 117.17 -58.29 C 120.35 -58.29 125.38 -57.79 127.31 -55.02 Z M 192.98 -0.42 L 192.98 0 L 221.58 0 C 238.78 0 251.61 -11.91 251.61 -29.52 C 251.61 -46.21 239.53 -58.71 221.58 -58.71 L 192.98 -58.71 L 192.98 -58.29 C 196.17 -58.29 200.53 -57.53 200.53 -54.18 L 200.53 -4.53 C 200.53 -1.17 196.17 -0.42 192.98 -0.42 Z M 208.92 -1.68 L 208.92 -57.03 L 221.58 -57.03 C 234.5 -57.03 243.22 -45.29 243.14 -29.52 C 243.14 -12.92 233.83 -1.68 221.58 -1.68 Z M 262.68 -0.42 L 262.68 0 L 311.99 0 L 312.25 -1.59 L 313.92 -12.92 L 312.66 -13.08 C 311.99 -8.3 308.72 -1.68 298.66 -1.68 L 278.61 -1.68 L 278.61 -35.39 C 282.05 -32.21 287.08 -30.28 293.37 -30.28 L 297.99 -30.28 C 302.35 -30.28 303.35 -24.57 303.35 -20.46 L 303.86 -20.46 L 303.86 -41.77 L 303.35 -41.77 C 303.35 -37.66 302.35 -31.95 297.99 -31.95 L 294.8 -31.95 C 285.57 -31.95 278.61 -38.33 278.61 -46.72 L 278.61 -57.03 L 297.82 -57.03 C 307.88 -57.03 311.15 -50.41 311.83 -45.62 L 313.08 -45.79 L 311.41 -57.11 L 311.15 -58.71 L 262.68 -58.71 L 262.68 -58.29 C 265.87 -58.29 270.23 -57.53 270.23 -54.18 L 270.23 -4.53 C 270.23 -1.17 265.87 -0.42 262.68 -0.42 Z M 327.01 -0.42 L 327.01 0 L 350.49 0 L 350.49 -0.42 C 347.3 -0.42 342.94 -1.17 342.94 -4.53 L 342.94 -57.03 L 354.52 -57.03 C 364.58 -57.03 367.43 -49.82 367.43 -42.02 C 367.43 -34.47 365.08 -26.84 356.7 -26.84 L 356.19 -26.84 C 351.41 -26.84 347.55 -28.52 344.7 -31.53 L 343.53 -30.36 L 363.57 -3.61 C 365.59 -0.92 361.9 -0.42 358.71 -0.42 L 358.71 0 L 383.87 0 L 383.87 -0.42 C 380.68 -0.42 375.48 -0.84 373.22 -3.27 L 351.75 -25.66 C 353.17 -25.33 354.68 -25.16 356.19 -25.16 C 368.52 -25.16 375.82 -31.95 375.82 -42.02 C 375.82 -51.58 368.94 -58.71 357.87 -58.71 L 327.01 -58.71 L 327.01 -58.29 C 330.19 -58.29 334.55 -57.53 334.55 -54.18 L 334.55 -4.53 C 334.55 -1.17 330.19 -0.42 327.01 -0.42 Z" stroke-linecap="round" />
</g>
</g>
</g>
</svg>